<svg xmlns="http://www.w3.org/2000/svg" width="12.807" height="12.279" viewBox="0 0 12.807 12.279">
  <g id="IconEnd" transform="translate(-3.374 -3.375)">
    <path id="Caminho_1" data-name="Caminho 1" d="M11.537,7.282a.118.118,0,0,0-.147,0l-4.6,3.576a.119.119,0,0,0-.044.089v6.591a.058.058,0,0,0,.059.057H9.991a.058.058,0,0,0,.059-.057V13.526a.058.058,0,0,1,.059-.057h2.71a.058.058,0,0,1,.059.057v4.012a.058.058,0,0,0,.059.057h3.182a.058.058,0,0,0,.059-.057V10.947a.115.115,0,0,0-.044-.089Z" transform="translate(-1.688 -1.941)" fill="#4298c8"/>
    <path id="Caminho_2" data-name="Caminho 2" d="M16.014,8.866,10.2,3.544a.611.611,0,0,0-.843,0L6.821,5.9V4.412a.067.067,0,0,0-.062-.07H4.913a.067.067,0,0,0-.062.07V7.654L3.537,8.888a.521.521,0,0,0-.163.359.539.539,0,0,0,.126.376.393.393,0,0,0,.576.035l5.66-5.2a.05.05,0,0,1,.04-.014.068.068,0,0,1,.04.014l5.66,5.182a.393.393,0,0,0,.576-.035.531.531,0,0,0-.037-.735Z" transform="translate(0)" fill="#4298c8"/>
  </g>
</svg>
