<svg xmlns="http://www.w3.org/2000/svg" width="173.1" height="138.48" viewBox="0 0 173.1 138.48">
  <path id="Icon_awesome-user-check" data-name="Icon awesome-user-check" d="M60.585,69.24a34.62,34.62,0,1,0-34.62-34.62A34.617,34.617,0,0,0,60.585,69.24Zm24.234,8.655H80.3a47.082,47.082,0,0,1-39.434,0H36.351A36.36,36.36,0,0,0,0,114.246V125.5A12.986,12.986,0,0,0,12.982,138.48h95.2A12.986,12.986,0,0,0,121.17,125.5V114.246A36.36,36.36,0,0,0,84.819,77.895ZM172.18,43.167l-7.519-7.6a3.208,3.208,0,0,0-4.544-.027L131.772,63.668,119.466,51.281a3.208,3.208,0,0,0-4.544-.027l-7.6,7.546a3.208,3.208,0,0,0-.027,4.544l22.1,22.26a3.208,3.208,0,0,0,4.544.027l38.217-37.92a3.233,3.233,0,0,0,.027-4.544Z" fill="#7f0093"/>
</svg>
