<svg xmlns="http://www.w3.org/2000/svg" width="104.187" height="119.07" viewBox="0 0 104.187 119.07">
  <path id="Icon_awesome-trash-restore-alt" data-name="Icon awesome-trash-restore-alt" d="M7.442,107.907A11.163,11.163,0,0,0,18.6,119.07H85.582a11.163,11.163,0,0,0,11.163-11.163V29.768H7.442ZM28.677,67.721,49.463,45.8a3.584,3.584,0,0,1,5.26,0L75.51,67.721c2.344,2.47.684,6.7-2.633,6.7H59.535v26.047a3.721,3.721,0,0,1-3.721,3.721H48.372a3.721,3.721,0,0,1-3.721-3.721V74.419H31.309c-3.316,0-4.977-4.228-2.633-6.7ZM100.466,7.442H72.558L70.372,3.093a5.581,5.581,0,0,0-5-3.093H38.791a5.516,5.516,0,0,0-4.977,3.093L31.628,7.442H3.721A3.721,3.721,0,0,0,0,11.163V18.6a3.721,3.721,0,0,0,3.721,3.721h96.745a3.721,3.721,0,0,0,3.721-3.721V11.163A3.721,3.721,0,0,0,100.466,7.442Z" transform="translate(0 0)" fill="#c20a0a"/>
</svg>
