<svg xmlns="http://www.w3.org/2000/svg" width="362.814" height="109" viewBox="0 0 362.814 109">
  <g id="Logo1" transform="translate(-0.998 0)">
    <path id="Caminho_1" data-name="Caminho 1" d="M109.968,54.145a54.218,54.218,0,0,1-7.057,27.169q-.912,1.613-1.933,3.156a4.7,4.7,0,1,1-7.837-5.178,45.088,45.088,0,1,0-75.313,0,4.7,4.7,0,0,1-7.841,5.174A54.485,54.485,0,0,1,54.475.01C54.818,0,55.159,0,55.5,0a54.357,54.357,0,0,1,54.469,54.145Z" transform="translate(0 0)" fill="#494d4b"/>
    <path id="Caminho_2" data-name="Caminho 2" d="M12.549,36.1l8.513,42.347A4.695,4.695,0,0,0,30.267,76.6L21.755,34.25A4.695,4.695,0,1,0,12.549,36.1Z" transform="translate(10.069 26.783)" fill="#fab24e"/>
    <path id="Caminho_3" data-name="Caminho 3" d="M26.59,74.454l-2.158.435A12.827,12.827,0,0,1,9.5,65.582c-.063-.244-.122-.488-.171-.737L6.231,49.479a12.835,12.835,0,0,1,10.044-15.11l2.158-.434,3.786,18.806Z" transform="translate(4.378 29.82)" fill="#494d4b"/>
    <path id="Caminho_4" data-name="Caminho 4" d="M24.945,65.658l-2.158.435A12.827,12.827,0,0,1,7.851,56.786,118.789,118.789,0,0,0,20.575,43.945Z" transform="translate(6.022 38.616)" fill="#494d4b"/>
    <path id="Caminho_5" data-name="Caminho 5" d="M61.305,46.123l-1.113,5.526q-.912,1.613-1.933,3.156a4.7,4.7,0,1,1-7.837-5.178,44.812,44.812,0,0,0,6.545-15.868,12.827,12.827,0,0,1,4.337,12.364Z" transform="translate(42.719 29.665)" fill="#494d4b"/>
    <path id="Caminho_6" data-name="Caminho 6" d="M93.8,20.906l-6.738,6.738a44.982,44.982,0,0,0-73.937,2.287L6.294,23.1A54.407,54.407,0,0,1,49.821.009C50.164,0,50.5,0,50.845,0A54.338,54.338,0,0,1,93.8,20.906Z" transform="translate(4.654 0)" fill="#fe7e01"/>
    <path id="Caminho_7" data-name="Caminho 7" d="M46.579,34.225,38.067,76.572a4.695,4.695,0,1,0,9.206,1.851l8.513-42.346a4.695,4.695,0,1,0-9.206-1.851Z" transform="translate(32.492 26.761)" fill="#fab24e"/>
    <path id="Caminho_8" data-name="Caminho 8" d="M63.408,49.479,60.316,64.845A12.828,12.828,0,0,1,45.208,74.889l-2.158-.434,2.236-11.1,5.92-29.418,2.158.434a12.851,12.851,0,0,1,8.151,5.474,12.56,12.56,0,0,1,.712,1.212A12.831,12.831,0,0,1,63.408,49.479Z" transform="translate(36.953 29.82)" fill="#494d4b"/>
    <path id="Caminho_9" data-name="Caminho 9" d="M63.408,46.149,60.316,61.514A12.828,12.828,0,0,1,45.208,71.559l-2.158-.435,2.236-11.1a129.975,129.975,0,0,0,16.941-22.3A12.832,12.832,0,0,1,63.408,46.149Z" transform="translate(36.953 33.15)" fill="#494d4b"/>
    <text id="Labefy" transform="translate(128.811 85)" fill="#494d4b" font-size="77" font-family="Roboto-Bold, Roboto" font-weight="700"><tspan x="0" y="0">Labefy</tspan></text>
  </g>
</svg>
