<svg xmlns="http://www.w3.org/2000/svg" width="126.335" height="95.199" viewBox="0 0 126.335 95.199">
  <g id="Playlists" transform="translate(-1.631 -4.333)">
    <path id="Caminho_10" data-name="Caminho 10" d="M55.17,28.847H50.119a3.65,3.65,0,0,0-3.268,2.019L42.184,40.2a1.826,1.826,0,0,1-3.268,0L27.5,17.365a1.827,1.827,0,0,0-3.243-.05l-5.194,9.612a3.666,3.666,0,0,1-3.219,1.92H11.292" transform="translate(31.568 40.334)" fill="none" stroke="#fe7e01" stroke-linecap="round" stroke-linejoin="round" stroke-width="2"/>
    <path id="Caminho_11" data-name="Caminho 11" d="M20.8,55.04H15.1A12.429,12.429,0,0,0,2.976,70.2L7.183,88.84A12.429,12.429,0,0,0,19.3,98.532h7.431a3.107,3.107,0,0,0,3.032-3.79L21.741,59.2A44.142,44.142,0,0,1,64.8,5.333h0A44.142,44.142,0,0,1,107.857,59.2L99.835,94.742a3.1,3.1,0,0,0,3.026,3.79h7.431a12.429,12.429,0,0,0,12.122-9.693L126.62,70.2A12.429,12.429,0,0,0,114.5,55.04h-5.7" transform="translate(0)" fill="none" stroke="#fab24e" stroke-linecap="round" stroke-linejoin="round" stroke-width="2"/>
  </g>
</svg>
